<?xml version="1.0" encoding="UTF-8" standalone="no"?>
<svg
   width="179.5397mm"
   height="184.252mm"
   viewBox="0 0 179.5397 184.252"
   version="1.1"
   id="svg8"
   xmlns="http://www.w3.org/2000/svg"
   xmlns:svg="http://www.w3.org/2000/svg"
   xmlns:rdf="http://www.w3.org/1999/02/22-rdf-syntax-ns#"
   xmlns:cc="http://creativecommons.org/ns#"
   xmlns:dc="http://purl.org/dc/elements/1.1/">
  <defs
     id="defs2" />
  <metadata
     id="metadata5">
    <rdf:RDF>
      <cc:Work
         rdf:about="">
        <dc:format>image/svg+xml</dc:format>
        <dc:type
           rdf:resource="http://purl.org/dc/dcmitype/StillImage" />
      </cc:Work>
    </rdf:RDF>
  </metadata>
  <g
     id="layer1"
     transform="translate(-246.27213,-160.89639)">
    <g
       id="g2681"
       transform="matrix(0.85762965,-0.49515271,0.49515271,0.85762965,-77.883122,203.73703)">
      <g
         id="g1548"
         transform="rotate(30,336.04198,253.02239)">
        <path
           style="fill:#9c173e;fill-opacity:1;stroke:none;stroke-width:0.264583px;stroke-linecap:butt;stroke-linejoin:miter;stroke-opacity:1"
           d="m 278.37066,287.78046 59.66079,-34.44516 59.66076,34.44516 -59.66079,34.44515 z"
           id="path1539" />
        <path
           style="fill:#ff85a9;fill-opacity:1;stroke:none;stroke-width:0.264583px;stroke-linecap:butt;stroke-linejoin:miter;stroke-opacity:1"
           d="m 278.37066,287.78046 v -68.89032 l 59.66076,-34.44516 59.66079,34.44516 z"
           id="path1541" />
        <path
           style="fill:#e94475;fill-opacity:1;stroke:none;stroke-width:0.264583px;stroke-linecap:butt;stroke-linejoin:miter;stroke-opacity:1"
           d="m 338.03145,253.3353 59.66076,-34.44516 v 68.89032 z"
           id="path1543" />
      </g>
      <path
         style="fill:#ffffff;fill-opacity:1;stroke:none;stroke-width:0.264583px;stroke-linecap:butt;stroke-linejoin:miter;stroke-opacity:1"
         d="m 349.18011,274.33033 c -4.12877,2.17652 -8.97099,2.97137 -13.5789,2.22896 -4.60791,-0.7424 -8.95546,-3.01786 -12.19171,-6.381 -3.23624,-3.36314 -5.34289,-7.79495 -5.90761,-12.42799 -0.56472,-4.63304 0.41568,-9.44113 2.74931,-13.48318 2.33365,-4.04208 6.00735,-7.29526 10.30205,-9.12278 4.29469,-1.82753 9.18611,-2.21908 13.71684,-1.09801 4.53072,1.12107 8.67515,3.74842 11.62209,7.36779 2.94693,3.61938 4.67971,8.21032 4.85917,12.87423 l 22.60465,1e-5 c -0.3548,-9.21932 -3.78008,-18.29438 -9.60541,-25.44891 -5.82532,-7.15453 -14.01777,-12.34809 -22.97381,-14.56414 -8.95605,-2.21605 -18.62509,-1.44207 -27.11457,2.17045 -8.48949,3.61253 -15.75144,10.04318 -20.36448,18.03327 -4.61302,7.99007 -6.55107,17.49441 -5.4348,26.65274 1.11626,9.15834 5.28052,17.9189 11.67771,24.56699 6.39719,6.64809 14.99115,11.14612 24.09979,12.61371 9.10864,1.46759 18.68047,-0.10356 26.84201,-4.40594 z"
         id="path1440" />
      <g
         id="g1923"
         transform="rotate(-15.248891,1083.9405,2189.1437)">
        <path
           fill="#71c7f2"
           opacity="1"
           d="m 844.07263,83.05745 c 0.4375,-1.05127 -4.13261,-3.868496 -4.13261,-3.868496 0,0 -1.72995,-1.942518 -2.98585,-2.411708 -1.3864,0.91722 -2.9598,1.63689 -4.6461,1.70744 0.4868,-0.57503 1.203,-0.85019 1.7921,-1.29822 0.4516,-0.45861 0.6844,-1.07245 0.9984,-1.62278 -2.5647,-0.39511 -4.4979,-2.79753 -4.7237,-5.32342 0.7373,0.29634 1.4781,0.57856 2.2295,0.83962 -1.7391,-2.53648 -2.5329,-5.6515 -2.0743,-8.71009 0.5468,0.57856 1.1395,1.11125 1.7463,1.62984 -0.9808,-2.24014 -1.9403,-4.52967 -2.1555,-6.99206 -0.3034,-2.98803 -1.5028,-5.76086 -2.3107,-8.62542 -0.6033,-1.41463 -1.6686,-2.55411 -2.4377,-3.86997 -0.1834,-0.40922 0.2893,-0.72319 0.4445,-1.05128 2.4377,0.4445 4.6849,1.57339 6.8686,2.70581 -0.4798,-0.77964 -1.0407,-1.60161 -0.7797,-2.56469 0.755,0.49741 1.4288,1.10066 2.0285,1.78152 -0.1129,-0.57855 -0.1481,-1.15711 -0.1058,-1.74272 1.2665,0.67028 1.7357,2.11667 2.1272,3.39372 2.6318,-0.067 5.2353,0.50448 7.7894,1.07598 2.9174,0.9278 6.0677,1.47108 8.5654,3.35844 1.5734,1.22767 3.2068,2.40242 4.5473,3.89819 1.263,1.34409 7.84147,8.420628 9.48537,9.337848 M 829.29537,46.759386 c 0.5962,0.635 1.3899,1.22414 1.524,2.14841 0.3034,1.52047 0.4551,3.06917 0.7338,4.5967 0.4339,2.56116 -0.1129,5.25286 0.8219,7.73641 1.2065,3.12561 3.3408,5.74323 5.1894,8.49842 0.7549,0.91722 1.8415,1.47108 2.9139,1.93675 0.032,-1.24883 -0.1023,-2.57881 0.5715,-3.69711 0.8855,-1.55575 1.651,-3.21733 2.8611,-4.55789 0.078,0.79375 0.1376,1.59103 0.194,2.38831 1.4676,-1.53812 1.8062,-3.77825 1.8803,-5.82084 1.8944,0.50095 3.429,1.79917 5.2846,2.39889 -0.441,-1.03364 -0.8114,-2.16605 -1.6721,-2.93864 -0.7515,-0.6985 -1.5558,-1.34055 -2.2261,-2.12019 1.9015,0.40216 3.1997,1.97908 4.9848,2.58233 -1.4958,-2.21544 -3.0057,-4.53319 -5.2106,-6.11364 -2.5893,-1.99672 -5.8067,-2.86103 -8.8653,-3.85939 -3.0938,-0.78316 -5.916,-2.32127 -8.9852,-3.17852"
           id="path2-3-2"
           style="fill:#ff85a9;fill-opacity:1;stroke-width:0.352778" />
        <path
           fill="#2298d3"
           opacity="1"
           d="m 829.29537,46.759386 c 3.0692,0.85725 5.8914,2.39536 8.9852,3.17852 3.0586,0.99836 6.276,1.86267 8.8653,3.85939 2.2049,1.58045 3.7148,3.8982 5.2106,6.11364 -1.7851,-0.60325 -3.0833,-2.18017 -4.9848,-2.58233 0.6703,0.77964 1.4746,1.42169 2.2261,2.12019 0.8607,0.77259 1.2311,1.905 1.6721,2.93864 -1.8556,-0.59972 -3.3902,-1.89794 -5.2846,-2.39889 -0.074,2.04259 -0.4127,4.28272 -1.8803,5.82084 -0.056,-0.79728 -0.1164,-1.59456 -0.194,-2.38831 -1.2101,1.34056 -1.9756,3.00214 -2.8611,4.55789 -0.6738,1.1183 -0.5397,2.44828 -0.5715,3.69711 -1.0724,-0.46567 -2.159,-1.01953 -2.9139,-1.93675 -1.8486,-2.75519 -3.9829,-5.37281 -5.1894,-8.49842 -0.9348,-2.48355 -0.388,-5.17525 -0.8219,-7.73641 -0.2787,-1.52753 -0.4304,-3.07623 -0.7338,-4.5967 -0.1341,-0.92427 -0.9278,-1.51341 -1.524,-2.14841 z"
           id="path9-2-5"
           style="fill:#e94475;fill-opacity:1;stroke-width:0.352778" />
      </g>
      <g
         id="g1919"
         transform="translate(-751.14872,196.22876)">
        <path
           fill="#2298d3"
           opacity="1"
           d="m 1140.9679,-4.113253 c 2.3671,-0.73025 4.8542,-1.42522 7.3518,-1.06539 1.263,0.19755 2.3601,1.42875 2.0567,2.75167 -0.4939,2.7058 -1.404,5.34105 -2.741,7.747 -1.4923,2.90336 -2.3284,6.31472 -4.8931,8.51958 -1.8168,1.45344 -4.0322,2.4765 -6.3958,2.50825 0.6244,-3.01978 -1.2136,-5.69031 -2.4025,-8.30792 -0.6279,-1.51694 -1.9261,-2.55764 -2.9703,-3.76766 1.7109,-0.25048 3.1679,0.762 4.7625,1.15711 -0.3352,-0.69498 -0.8538,-1.26295 -1.4358,-1.75331 0.9348,-0.34572 1.785,-0.87842 2.5223,-1.54517 -1.4993,-0.0106 -2.9986,-0.0106 -4.4873,-0.19402 1.076,-0.9137 2.3107,-1.60867 3.4643,-2.413 1.7568,-1.16417 3.1009,-2.96686 5.1682,-3.63714 z"
           id="path11-3-0"
           style="fill:#e94475;fill-opacity:1;stroke-width:0.352778" />
        <path
           fill="#71c7f2"
           opacity="1"
           d="m 1120.2672,-3.742783 c 0.4691,1.21003 1.7709,1.79917 2.9351,2.14137 3.5701,-1.651 7.0908,-3.62303 11.0066,-4.36387 5.4751,-1.06891 11.1019,0.0635 16.5947,-0.81138 0.071,-0.56445 0.1693,-1.13595 0.5397,-1.59103 0.1764,0.23283 0.5327,0.69144 0.7091,0.92075 0.4445,-0.71967 0.7444,-1.6122 1.5523,-2.01436 0.7302,0.38805 0.3316,1.40758 0.4374,2.07433 1.1889,-0.49742 2.2895,-1.2065 3.5419,-1.55575 0.2011,2.10256 -1.8203,3.27378 -3.2068,4.44147 -1.1042,0.82903 -1.1959,2.29659 -1.7145,3.47134 -1.0407,2.39183 -1.8803,4.86833 -3.2138,7.11905 -0.6032,2.08845 -1.8203,3.91936 -3.2138,5.56331 0.7021,-0.127 1.4076,-0.23636 2.1202,-0.33514 -0.2928,0.18697 -0.5785,0.37041 -0.8643,0.55739 -0.4515,0.95602 -1.0654,1.82386 -1.7815,2.59997 0.8784,-0.27517 1.7956,-0.47625 2.727,-0.34925 -0.7762,0.8643 -2.0673,0.97719 -2.7588,1.93675 -1.9085,1.778 -3.9758,3.42194 -6.2194,4.75544 -0.9808,0.64559 -2.2649,0.63148 -3.1891,1.35114 -1.397,2.02495 -0.6985,4.70959 0.4691,6.67809 m 4.2296,-32.96009 c -2.0673,0.67028 -3.4114,2.47297 -5.1682,3.63714 -1.1536,0.80433 -2.3883,1.4993 -3.4643,2.413 1.4887,0.18344 2.988,0.18344 4.4873,0.19402 -0.7373,0.66675 -1.5875,1.19945 -2.5223,1.54517 0.582,0.49036 1.1006,1.05833 1.4358,1.75331 -1.5946,-0.39511 -3.0516,-1.40759 -4.7625,-1.15711 1.0442,1.21002 2.3424,2.25072 2.9703,3.76766 1.1889,2.61761 3.0269,5.28814 2.4025,8.30792 2.3636,-0.0318 4.579,-1.05481 6.3958,-2.50825 2.5647,-2.20486 3.4008,-5.61622 4.8931,-8.51958 1.337,-2.40595 2.2471,-5.0412 2.741,-7.747 0.3034,-1.32292 -0.7937,-2.55412 -2.0567,-2.75167 -2.4976,-0.35983 -4.9847,0.33514 -7.3518,1.06539"
           id="path2-3-2-3"
           style="fill:#ff85a9;fill-opacity:1;stroke-width:0.352778" />
      </g>
      <g
         id="g1665"
         transform="matrix(0.75166153,0.02862616,-0.02862616,0.75166153,126.11091,63.832918)">
        <g
           id="#18526fff-6"
           style="fill:#9c173e;fill-opacity:1"
           transform="matrix(0.35277777,0,0,0.35277777,165.03038,131.89142)">
          <path
             fill="#18526f"
             opacity="1"
             d="m 398.12,247.22 c 2.49,-1.11 4.91,0.57 6.91,1.89 10.15,6.99 21.46,12.15 31.38,19.51 1.82,1.36 4.34,2.68 4.37,5.29 -0.08,2.48 -0.47,5.54 -2.83,6.92 -5.66,3.91 -12.1,6.47 -17.76,10.39 -5.85,3.96 -11.97,7.52 -18.26,10.74 -4.76,2.49 -9.81,-4.34 -6.09,-8.19 3.83,-3.01 8.46,-4.79 12.54,-7.42 5.77,-3.68 11.4,-7.62 17.63,-10.51 1.64,-0.34 0.18,-1.94 -0.64,-2.2 -9.51,-5.88 -19.52,-10.99 -28.65,-17.49 -3.25,-2.19 -2.26,-7.74 1.4,-8.93 z"
             id="path18-2"
             style="fill:#9c173e;fill-opacity:1" />
          <path
             fill="#18526f"
             opacity="1"
             d="m 566.41,247.6 c 3.78,-1.67 8.16,2.48 6.81,6.36 -0.54,2.41 -3.04,3.29 -4.92,4.42 -4.22,2.24 -8.25,4.83 -12.01,7.77 -4.87,3.24 -10.22,5.68 -15.34,8.5 8.28,5.57 16.6,11.11 25.28,16.04 2.46,1.47 6.15,2.09 6.9,5.33 1.07,3.49 -2.45,7.35 -6.03,6.46 -4.93,-1.44 -9.15,-4.49 -13.52,-7.07 -8.58,-5.34 -16.95,-11.01 -25.39,-16.57 -3.07,-1.61 -3.78,-6.41 -0.91,-8.54 8.88,-5.56 18.89,-9.27 27.13,-15.84 3.92,-2.41 7.74,-5.07 12,-6.86 z"
             id="path20-6"
             style="fill:#9c173e;fill-opacity:1" />
          <path
             fill="#18526f"
             opacity="1"
             d="m 489.13,284.97 c -1.21,-3.54 2.22,-7.39 5.87,-6.71 5.32,0.69 9.24,5.06 11.3,9.76 0.59,6.06 -1.65,12.9 -7.21,16.01 -4.68,3.32 -10.89,2.82 -15.95,0.72 -2.86,1.45 -5.82,3.25 -9.15,3.03 -4.69,-0.36 -9.58,-2.52 -11.98,-6.76 -2.62,-4.62 -2.02,-10.36 -0.42,-15.23 2.36,-4.02 6.62,-7.21 11.44,-7.07 3.23,0.4 5.42,4.16 4.09,7.17 -1.17,3.33 -7,2.85 -6.39,7.13 -0.7,2.73 1.75,4.37 4.22,4.31 2.27,-1.62 2.3,-4.78 3.41,-7.14 1.09,-3.92 7.16,-4.17 8.99,-0.71 0.84,2.17 1.1,4.51 1.58,6.78 3.29,-0.08 7.67,-1.9 6.74,-5.94 -2.02,-1.96 -5.69,-2.34 -6.54,-5.35 z"
             id="path22-1"
             style="fill:#9c173e;fill-opacity:1" />
        </g>
        <g
           id="#fcaecbff-8"
           style="fill:#ffe5ed;fill-opacity:1"
           transform="matrix(0.35277777,0,0,0.35277777,165.03038,131.89142)">
          <path
             fill="#fcaecb"
             opacity="1"
             d="m 425.31,306.41 c 3.14,-1.85 5.22,3.84 2.49,5.37 -3.63,2.78 -7.85,4.74 -11.24,7.85 -1.65,1.16 -3.07,3.19 -5.28,3.12 -1.74,-0.95 -2.71,-2.77 -3.74,-4.37 -0.6,-1.05 -1.18,-2.1 -1.76,-3.15 -5.04,2.4 -8.87,6.7 -13.8,9.16 -3.1,-1.46 -3.68,-5.47 -5.55,-8.1 -3.34,2.46 -6.43,5.51 -10.43,6.89 -2.42,0.97 -4.55,-3.03 -2.31,-4.43 3.22,-2.48 6.73,-4.55 9.88,-7.14 1.65,-1.09 3.61,-3.22 5.74,-1.96 1.68,2.2 2.64,4.84 3.89,7.28 4.54,-2.99 8.82,-6.53 13.75,-8.84 3.08,0.39 3.44,4.49 4.86,6.72 0.09,0.25 0.28,0.75 0.37,1 4.43,-3.06 8.76,-6.26 13.13,-9.4 z"
             id="path32-7"
             style="fill:#ffe5ed;fill-opacity:1" />
          <path
             fill="#fcaecb"
             opacity="1"
             d="m 569.6,312.77 c 2.48,-2.25 4.02,-6.14 7.4,-7 2.98,1.42 4.57,4.58 6.62,7.04 3.17,-2.26 6.04,-4.97 9.5,-6.8 2.37,-0.38 4.11,2.81 2.31,4.52 -2.66,2.68 -5.98,4.59 -8.71,7.19 -1.28,0.9 -2.53,2.67 -4.29,1.92 -2.3,-1.76 -3.82,-4.3 -5.59,-6.53 -2.35,2.35 -4.41,4.99 -6.98,7.11 -3.75,1.46 -4.63,-3.6 -6.14,-5.86 -2.47,2.27 -4.75,4.73 -7.01,7.19 -3.72,2.6 -5.82,-1.73 -7.21,-4.49 -2.39,1.93 -4.66,4.09 -7.46,5.41 -1.97,0.07 -3.76,-2.24 -2.53,-4 2.23,-2.67 5.11,-4.71 7.7,-7.02 1.48,-1.07 3.26,-3.11 5.25,-1.87 1.32,1.53 1.53,3.68 2.26,5.53 2.96,-2.49 5.54,-5.79 9.31,-7.05 2.98,-0.67 4.05,2.9 5.57,4.71 z"
             id="path34-9"
             style="fill:#ffe5ed;fill-opacity:1" />
        </g>
      </g>
      <path
         fill="#2298d3"
         opacity="1"
         d="m 364.67327,296.51471 c 5.91257,0.84652 11.81423,1.88368 17.55834,3.53603 7.21367,1.6882 14.03598,5.12321 19.6092,10.01678 1.26579,1.10978 2.42437,2.74232 1.90844,4.51785 -0.36162,2.72627 -2.93697,4.22755 -5.28972,5.06168 -3.30022,1.09886 -6.72016,1.78581 -10.12081,2.4962 -8.1154,1.18801 -15.31096,0.77893 -22.68071,0.12419 -6.16983,-0.45892 -12.28215,-1.48679 -18.44319,-2.06023 -6.24714,-0.59286 -12.51389,-1.13983 -18.79712,-1.01192 -7.19465,0.0809 -14.45203,0.7367 -21.38245,2.76201 -5.69304,1.61912 -10.75906,5.08262 -14.6071,9.54814 -0.8881,1.16083 -2.70792,1.39636 -3.84053,0.45739 -1.16881,-0.87198 -1.40882,-2.72952 -0.44717,-3.83778 4.36176,-5.14232 10.10904,-9.17198 16.57334,-11.1615 7.12315,-2.24028 14.6304,-2.99711 22.06517,-3.2109 7.08915,-0.21877 14.1646,0.37691 21.2143,1.02776 4.27328,0.42189 8.51996,1.05212 12.78818,1.52012 1.81656,0.21284 3.64159,0.38045 5.46843,0.54125 l 4.44266,0.37601 c 3.90552,0.1042 7.81128,0.39839 11.71695,0.18854 3.2923,-0.16967 6.51508,-0.93867 9.7176,-1.67293 1.97965,-0.47756 3.99287,-0.91693 5.83667,-1.81437 -3.91911,-3.36564 -8.52075,-5.88788 -13.3986,-7.55646 -6.0814,-1.79751 -12.26773,-3.25794 -18.55751,-4.1142 -0.58632,-1.87364 -1.02033,-3.79779 -1.33435,-5.73361 z"
         id="path13"
         style="fill:#e94475;fill-opacity:1;stroke-width:0.352778" />
      <g
         id="#ff85a9ff-92"
         style="fill:#ff85a9;fill-opacity:1"
         transform="matrix(-0.20260552,0.36498151,-0.36498151,-0.20260552,434.74642,87.453619)">
        <path
           fill="#ff85a9"
           opacity="1"
           d="m 472.59,147.66 c 1.76,5.86 2.87,12.02 1.91,18.14 -3.89,-1.63 -6.02,-5.32 -7.67,-8.97 -0.82,4.48 -3.51,8.13 -5.42,12.15 -0.54,-3.68 -2.63,-7.08 -1.82,-10.94 -1.41,1.88 -2.99,3.66 -3.94,5.84 -0.09,-5.54 0.49,-11.47 4.51,-15.7"
           id="path2-3-28"
           style="fill:#ff85a9;fill-opacity:1" />
      </g>
      <g
         id="#ff85a9ff-92-9-3"
         style="fill:#e94475;fill-opacity:1"
         transform="matrix(0.35460462,-0.22026363,0.22026363,0.35460462,161.00527,228.76568)">
        <path
           fill="#ff85a9"
           opacity="1"
           d="m 163.7545,364.64154 c 0.55,-2.61 0.83,-5.27 0.92,-7.93 -1.54,0.56 -3.07,1.13 -4.6,1.71 -1.08,-1.31 -2.15,-2.62 -3.23,-3.92 -0.96,1.51 -1.91,3.03 -2.85,4.56 -1.3,0.13 -2.6,0.26 -3.89,0.4 0.47,2.24 0.97,4.49 1.51,6.72"
           id="path2-3-28-7-6"
           style="fill:#e94475;fill-opacity:1" />
      </g>
      <g
         id="#ff85a9ff-0"
         style="fill:#9c173e;fill-opacity:1"
         transform="matrix(-0.40088671,0.11640587,-0.11640587,-0.40088671,436.17584,472.73108)">
        <path
           fill="#ff85a9"
           opacity="1"
           d="m 200.50177,470.84563 c 1.14595,-3.80656 3.38803,-8.779 7.74266,-9.34699 l -1.15592,0.72743 c 0.21922,1.08616 0.64771,3.25849 0.85697,4.35462 2.33177,-0.25908 4.17526,-2.43141 6.27783,-3.51758 0.26905,-0.59789 0.80715,-1.7837 1.0762,-2.37162 0.3986,5.39096 -2.47127,10.17407 -6.60667,13.41264 3.42345,-0.43345 10.69228,4.87279 10.69228,4.87279 0,0 -11.59905,3.84642 -17.53807,2.3218"
           id="path2-3-23"
           style="fill:#9c173e;fill-opacity:1;stroke-width:0.996481" />
      </g>
      <path
         fill="#71c7f2"
         opacity="1"
         d="m 400.59199,263.28356 c 1.11701,0.16 3.35313,-0.95255 3.49924,0.73238 -0.97814,0.62832 -2.06214,1.08042 -3.13061,1.53569 2.46194,0.43406 4.88842,1.08952 7.21362,2.02062 -3.08764,0.96157 -6.37242,0.64643 -9.50145,0.041 0.41116,1.28492 0.85378,2.60523 0.66749,3.9777 -1.45774,-1.23736 -2.7037,-2.69238 -3.80081,-4.2459"
         id="path2-1"
         style="fill:#e94475;fill-opacity:1;stroke-width:0.705554" />
      <g
         id="#ff85a9ff-92-9"
         style="fill:#ff85a9;fill-opacity:1"
         transform="matrix(0.41511259,-0.04406847,0.04406847,0.41511259,113.88113,110.02065)">
        <path
           fill="#ff85a9"
           opacity="1"
           d="m 485.28,257.67 c -2,-3.22 -4.91,-6.56 -4.57,-10.57 2.83,-1.31 5.77,0.5 7.63,2.59 0.19,-3.61 0.42,-7.29 -0.96,-10.72 5.86,0.98 8.31,6.93 10.3,11.8 0.55,-2.45 2.2,-4.29 4.28,-5.61 4.46,2.44 3.77,8.27 1.5,12.02"
           id="path2-3-28-7"
           style="fill:#ff85a9;fill-opacity:1" />
      </g>
      <g
         id="#ff85a9ff-9"
         style="fill:#ff85a9;fill-opacity:1"
         transform="matrix(-0.41455491,-0.04903798,0.04903798,-0.41455491,464.39554,543.89573)">
        <path
           fill="#ff85a9"
           opacity="1"
           d="m 228.06,683.38 c -2.53,4.01 -5.56,8.29 -10.5,9.32 0.4,-3.13 1.61,-6.09 3.5,-8.62 -2.28,0.33 -4.53,0.95 -6.84,0.98 -1.97,0.04 -4.01,-1.21 -5.88,-0.18 2.45,-2.6 6.15,-3.89 9.5,-5.01 -2.77,-0.73 -5.42,-1.86 -7.82,-3.43 4.3,-2.67 9.68,-0.41 13.88,1.44"
           id="path2-3-2-32"
           style="fill:#ff85a9;fill-opacity:1" />
      </g>
    </g>
  </g>
</svg>
