<?xml version="1.0" encoding="UTF-8" standalone="no"?>
<svg
   width="179.5397mm"
   height="184.252mm"
   viewBox="0 0 179.5397 184.252"
   version="1.1"
   id="svg8"
   xmlns="http://www.w3.org/2000/svg"
   xmlns:svg="http://www.w3.org/2000/svg"
   xmlns:rdf="http://www.w3.org/1999/02/22-rdf-syntax-ns#"
   xmlns:cc="http://creativecommons.org/ns#"
   xmlns:dc="http://purl.org/dc/elements/1.1/">
  <defs
     id="defs2" />
  <metadata
     id="metadata5">
    <rdf:RDF>
      <cc:Work
         rdf:about="">
        <dc:format>image/svg+xml</dc:format>
        <dc:type
           rdf:resource="http://purl.org/dc/dcmitype/StillImage" />
      </cc:Work>
    </rdf:RDF>
  </metadata>
  <g
     id="layer1"
     transform="translate(-246.27213,-160.89639)">
    <path
       style="fill:#280068;fill-opacity:1;stroke:none;stroke-width:0.262018px;stroke-linecap:butt;stroke-linejoin:miter;stroke-opacity:1"
       d="m 278.48895,288.76554 59.0824,-34.11123 59.08237,34.11123 -59.0824,34.11122 z"
       id="path1539" />
    <path
       style="fill:#a179dc;fill-opacity:1;stroke:none;stroke-width:0.262018px;stroke-linecap:butt;stroke-linejoin:miter;stroke-opacity:1"
       d="m 278.48895,288.76554 v -68.22245 l 59.08237,-34.11123 59.0824,34.11123 z"
       id="path1541" />
    <path
       style="fill:#390091;fill-opacity:1;stroke:none;stroke-width:0.262018px;stroke-linecap:butt;stroke-linejoin:miter;stroke-opacity:1"
       d="m 337.57135,254.65431 59.08237,-34.11122 v 68.22245 z"
       id="path1543" />
    <path
       style="fill:#ffffff;fill-opacity:1;stroke:none;stroke-width:0.262018px;stroke-linecap:butt;stroke-linejoin:miter;stroke-opacity:1"
       d="m 357.4195,266.11338 c -2.46324,3.91102 -6.22251,6.99034 -10.54199,8.63525 -4.31948,1.64491 -9.17477,1.84611 -13.61554,0.56422 -4.44077,-1.28189 -8.44191,-4.03963 -11.2203,-7.73344 -2.77838,-3.69381 -4.3183,-8.30282 -4.31834,-12.9249 -4e-5,-4.62212 1.53981,-9.23118 4.31817,-12.92506 2.77835,-3.69387 6.7795,-6.45168 11.22028,-7.73362 4.44079,-1.28194 9.29612,-1.08077 13.61564,0.56413 4.31952,1.6449 8.07882,4.72424 10.54208,8.63529 l 19.38642,-11.19275 c -4.86926,-7.73108 -12.30042,-13.81808 -20.83898,-17.06959 -8.53855,-3.25151 -18.13625,-3.64915 -26.9145,-1.11509 -8.77826,2.53406 -16.68747,7.9855 -22.17955,15.2873 -5.49209,7.3018 -8.536,16.41269 -8.53596,25.54939 4e-5,9.13667 3.04402,18.2475 8.53613,25.54924 5.49212,7.30173 13.40133,12.75311 22.17956,15.28712 8.77824,2.53401 18.37589,2.13634 26.91441,-1.11518 8.53852,-3.25152 15.96965,-9.33851 20.83889,-17.06956 z"
       id="path1440" />
    <path
       fill="#71c7f2"
       opacity="1"
       d="m 287.27724,244.82135 c -0.43432,-1.04063 -5.60194,0.20928 -5.60194,0.20928 0,0 -2.57227,-0.13767 -3.77786,0.41846 -0.32154,1.61453 -0.91238,3.22284 -2.03846,4.45798 -0.065,-0.74328 0.24081,-1.43881 0.33644,-2.16549 -0.008,-0.63734 -0.27708,-1.22904 -0.44519,-1.83357 -2.066,1.52825 -5.10342,1.21287 -7.03727,-0.38938 0.72246,-0.31193 1.43743,-0.63616 2.1449,-0.9826 -2.99638,-0.54535 -5.74057,-2.15889 -7.5719,-4.61387 0.78813,0.0188 1.57599,-0.0266 2.36377,-0.0918 -2.25927,-0.87205 -4.53844,-1.79351 -6.42024,-3.35895 -2.31298,-1.86989 -5.0993,-2.95959 -7.67717,-4.38859 -1.41552,-0.56199 -2.95963,-0.60723 -4.42128,-0.98375 -0.41566,-0.15633 -0.30691,-0.70767 -0.42944,-1.04557 2.01218,-1.40449 4.37287,-2.19785 6.69177,-2.9441 -0.88283,-0.20613 -1.85197,-0.38473 -2.34732,-1.23975 0.87621,-0.18419 1.77024,-0.23748 2.66719,-0.18454 -0.4856,-0.32396 -0.91703,-0.70258 -1.29939,-1.14062 1.35441,-0.42339 2.69876,0.25505 3.86985,0.87008 1.78778,-1.89762 4.00486,-3.33019 6.18752,-4.72801 2.68653,-1.4049 5.26501,-3.24169 8.33377,-3.68242 1.96038,-0.25061 3.92538,-0.58032 5.91193,-0.48022 1.82585,0.0489 11.38922,0.35608 13.18042,-0.16056 m -38.45081,13.54354 c 0.86226,0.0234 1.82996,-0.12402 2.57349,0.42607 1.28085,0.8467 2.4758,1.81977 3.7444,2.68876 2.10375,1.48049 3.61556,3.74171 6.01395,4.81582 3.03938,1.33067 6.36835,1.65466 9.59489,2.27549 1.17139,0.10857 2.31849,-0.26946 3.39367,-0.699 -0.85597,-0.8932 -1.88496,-1.72601 -2.20167,-2.97957 -0.47677,-1.70743 -1.11163,-3.40426 -1.21074,-5.18995 0.61262,0.49855 1.21489,1.0125 1.81493,1.5287 -0.0585,-2.10452 -1.39791,-3.90448 -2.78277,-5.3807 1.67309,-0.98304 3.65604,-1.15718 5.37154,-2.04407 -1.03441,-0.41051 -2.08906,-0.93953 -3.2325,-0.87287 -1.01519,0.0415 -2.0275,0.15954 -3.04314,0.0874 1.60856,-1.05692 3.6227,-0.87049 5.29154,-1.70534 -2.60097,-0.49263 -5.28372,-1.04668 -7.93249,-0.5979 -3.20954,0.4289 -6.06058,2.08906 -8.89518,3.54407 -2.70779,1.62981 -5.75717,2.54225 -8.49992,4.1031"
       id="path2-3-2"
       style="fill:#a179dc;fill-opacity:1;stroke-width:0.349358" />
    <path
       fill="#2298d3"
       opacity="1"
       d="m 251.44653,229.90688 c 2.74275,-1.56085 5.79213,-2.47329 8.49992,-4.1031 2.8346,-1.45501 5.68564,-3.11517 8.89518,-3.54407 2.64877,-0.44878 5.33152,0.10527 7.93249,0.5979 -1.66884,0.83485 -3.68298,0.64842 -5.29154,1.70534 1.01564,0.0721 2.02795,-0.0459 3.04314,-0.0874 1.14344,-0.0667 2.19809,0.46236 3.2325,0.87287 -1.7155,0.88689 -3.69845,1.06103 -5.37154,2.04407 1.38493,1.47615 2.72424,3.27618 2.78277,5.3807 -0.59976,-0.51648 -1.20259,-1.02987 -1.81493,-1.5287 0.0991,1.78569 0.73397,3.48252 1.21074,5.18995 0.31671,1.25356 1.34556,2.08651 2.20167,2.97957 -1.07518,0.42954 -2.22228,0.80757 -3.39367,0.699 -3.22654,-0.62083 -6.55551,-0.94482 -9.59489,-2.27549 -2.39839,-1.07411 -3.9102,-3.33533 -6.01395,-4.81582 -1.2686,-0.86899 -2.46355,-1.84206 -3.7444,-2.68876 -0.74353,-0.55009 -1.71123,-0.40265 -2.57349,-0.42607 z"
       id="path9-2-5"
       style="fill:#390091;fill-opacity:1;stroke-width:0.349358" />
    <path
       fill="#2298d3"
       opacity="1"
       d="m 351.56388,175.48096 c 1.66851,-1.79836 3.45741,-3.62588 5.77759,-4.55397 1.18101,-0.45595 2.73154,0.0567 3.12639,1.34153 0.9162,2.56513 1.44052,5.27584 1.48518,8.00127 0.15777,3.22893 1.12985,6.56861 0.022,9.72948 -0.83847,2.14611 -2.23189,4.12048 -4.24326,5.31805 -0.95975,-2.89903 -3.85839,-4.27926 -6.17415,-5.93552 -1.28962,-0.99006 -2.9183,-1.23979 -4.41298,-1.7605 1.34329,-1.06198 3.09419,-0.91508 4.65741,-1.36579 -0.6316,-0.43006 -1.3576,-0.66039 -2.09955,-0.79275 0.63053,-0.75937 1.09592,-1.63721 1.39811,-2.57411 -1.29109,0.73329 -2.57694,1.47567 -3.94451,2.0555 0.47039,-1.3164 1.18519,-2.52379 1.77628,-3.78482 0.93024,-1.86831 1.19038,-4.07988 2.63146,-5.67837 z"
       id="path11-3-0"
       style="fill:#390091;fill-opacity:1;stroke-width:0.349358" />
    <path
       fill="#71c7f2"
       opacity="1"
       d="m 333.99379,186.0487 c 1.00146,0.80548 2.40964,0.66615 3.57753,0.38318 2.24433,-3.18369 4.28733,-6.61825 7.27881,-9.19253 4.16633,-3.62774 9.55276,-5.44268 13.83035,-8.91278 -0.2186,-0.51924 -0.41728,-1.05805 -0.32494,-1.63175 0.26657,0.11234 0.79922,0.32923 1.06405,0.43855 0.0249,-0.8373 -0.15986,-1.75126 0.33389,-2.4962 0.81838,-0.0288 0.98135,1.04299 1.40223,1.56243 0.77334,-1.01529 1.36614,-2.16838 2.26731,-3.08804 1.21355,1.70364 0.0599,3.70902 -0.55104,5.39699 -0.5365,1.25775 0.11152,2.56178 0.24843,3.82607 0.29179,2.56661 0.79797,5.10626 0.76877,7.69683 0.51678,2.08979 0.37954,4.26268 -0.002,6.36258 0.53926,-0.45657 1.09016,-0.89969 1.6524,-1.33725 -0.15854,0.30533 -0.31273,0.60412 -0.46526,0.90599 0.0862,1.04348 -0.0106,2.09174 -0.24048,3.11193 0.61709,-0.67094 1.30414,-1.29754 2.16582,-1.64981 -0.23773,1.12559 -1.28912,1.8617 -1.40704,3.02704 -0.7564,2.46987 -1.71538,4.90339 -2.97927,7.15796 -0.5215,1.03932 -1.62977,1.66305 -2.06605,2.73787 -0.19545,2.42839 1.73291,4.38495 3.70899,5.49505 m -12.69285,-30.36185 c -1.44108,1.59849 -1.70122,3.81006 -2.63146,5.67837 -0.59109,1.26103 -1.30589,2.46842 -1.77628,3.78482 1.36758,-0.57981 2.65343,-1.32219 3.94451,-2.0555 -0.30219,0.9369 -0.76758,1.81474 -1.39811,2.57411 0.74195,0.13236 1.46795,0.36269 2.09955,0.79275 -1.56322,0.45071 -3.31412,0.30381 -4.65741,1.36579 1.49468,0.52071 3.12336,0.77044 4.41298,1.7605 2.31576,1.65626 5.2144,3.03649 6.17415,5.93552 2.01134,-1.19762 3.40479,-3.17194 4.24326,-5.31805 1.10782,-3.16087 0.13574,-6.50055 -0.022,-9.72948 -0.0447,-2.72543 -0.56898,-5.43614 -1.48518,-8.00127 -0.39485,-1.2848 -1.94538,-1.79748 -3.12639,-1.34153 -2.32018,0.92809 -4.10908,2.75561 -5.77759,4.55397"
       id="path2-3-2-3"
       style="fill:#a179dc;fill-opacity:1;stroke-width:0.349358" />
    <g
       id="#18526fff-6"
       style="fill:#280068;fill-opacity:1"
       transform="matrix(0.23241759,-0.12263846,0.12263846,0.23241759,216.45623,225.56018)">
      <path
         fill="#18526f"
         opacity="1"
         d="m 398.12,247.22 c 2.49,-1.11 4.91,0.57 6.91,1.89 10.15,6.99 21.46,12.15 31.38,19.51 1.82,1.36 4.34,2.68 4.37,5.29 -0.08,2.48 -0.47,5.54 -2.83,6.92 -5.66,3.91 -12.1,6.47 -17.76,10.39 -5.85,3.96 -11.97,7.52 -18.26,10.74 -4.76,2.49 -9.81,-4.34 -6.09,-8.19 3.83,-3.01 8.46,-4.79 12.54,-7.42 5.77,-3.68 11.4,-7.62 17.63,-10.51 1.64,-0.34 0.18,-1.94 -0.64,-2.2 -9.51,-5.88 -19.52,-10.99 -28.65,-17.49 -3.25,-2.19 -2.26,-7.74 1.4,-8.93 z"
         id="path18-2"
         style="fill:#280068;fill-opacity:1" />
      <path
         fill="#18526f"
         opacity="1"
         d="m 566.41,247.6 c 3.78,-1.67 8.16,2.48 6.81,6.36 -0.54,2.41 -3.04,3.29 -4.92,4.42 -4.22,2.24 -8.25,4.83 -12.01,7.77 -4.87,3.24 -10.22,5.68 -15.34,8.5 8.28,5.57 16.6,11.11 25.28,16.04 2.46,1.47 6.15,2.09 6.9,5.33 1.07,3.49 -2.45,7.35 -6.03,6.46 -4.93,-1.44 -9.15,-4.49 -13.52,-7.07 -8.58,-5.34 -16.95,-11.01 -25.39,-16.57 -3.07,-1.61 -3.78,-6.41 -0.91,-8.54 8.88,-5.56 18.89,-9.27 27.13,-15.84 3.92,-2.41 7.74,-5.07 12,-6.86 z"
         id="path20-6"
         style="fill:#280068;fill-opacity:1" />
      <path
         fill="#18526f"
         opacity="1"
         d="m 489.13,284.97 c -1.21,-3.54 2.22,-7.39 5.87,-6.71 5.32,0.69 9.24,5.06 11.3,9.76 0.59,6.06 -1.65,12.9 -7.21,16.01 -4.68,3.32 -10.89,2.82 -15.95,0.72 -2.86,1.45 -5.82,3.25 -9.15,3.03 -4.69,-0.36 -9.58,-2.52 -11.98,-6.76 -2.62,-4.62 -2.02,-10.36 -0.42,-15.23 2.36,-4.02 6.62,-7.21 11.44,-7.07 3.23,0.4 5.42,4.16 4.09,7.17 -1.17,3.33 -7,2.85 -6.39,7.13 -0.7,2.73 1.75,4.37 4.22,4.31 2.27,-1.62 2.3,-4.78 3.41,-7.14 1.09,-3.92 7.16,-4.17 8.99,-0.71 0.84,2.17 1.1,4.51 1.58,6.78 3.29,-0.08 7.67,-1.9 6.74,-5.94 -2.02,-1.96 -5.69,-2.34 -6.54,-5.35 z"
         id="path22-1"
         style="fill:#280068;fill-opacity:1" />
    </g>
    <g
       id="#fcaecbff-8"
       style="fill:#ffe5ed;fill-opacity:1"
       transform="matrix(0.23241759,-0.12263846,0.12263846,0.23241759,216.45623,225.56018)">
      <path
         fill="#fcaecb"
         opacity="1"
         d="m 425.31,306.41 c 3.14,-1.85 5.22,3.84 2.49,5.37 -3.63,2.78 -7.85,4.74 -11.24,7.85 -1.65,1.16 -3.07,3.19 -5.28,3.12 -1.74,-0.95 -2.71,-2.77 -3.74,-4.37 -0.6,-1.05 -1.18,-2.1 -1.76,-3.15 -5.04,2.4 -8.87,6.7 -13.8,9.16 -3.1,-1.46 -3.68,-5.47 -5.55,-8.1 -3.34,2.46 -6.43,5.51 -10.43,6.89 -2.42,0.97 -4.55,-3.03 -2.31,-4.43 3.22,-2.48 6.73,-4.55 9.88,-7.14 1.65,-1.09 3.61,-3.22 5.74,-1.96 1.68,2.2 2.64,4.84 3.89,7.28 4.54,-2.99 8.82,-6.53 13.75,-8.84 3.08,0.39 3.44,4.49 4.86,6.72 0.09,0.25 0.28,0.75 0.37,1 4.43,-3.06 8.76,-6.26 13.13,-9.4 z"
         id="path32-7"
         style="fill:#ffe5ed;fill-opacity:1" />
      <path
         fill="#fcaecb"
         opacity="1"
         d="m 569.6,312.77 c 2.48,-2.25 4.02,-6.14 7.4,-7 2.98,1.42 4.57,4.58 6.62,7.04 3.17,-2.26 6.04,-4.97 9.5,-6.8 2.37,-0.38 4.11,2.81 2.31,4.52 -2.66,2.68 -5.98,4.59 -8.71,7.19 -1.28,0.9 -2.53,2.67 -4.29,1.92 -2.3,-1.76 -3.82,-4.3 -5.59,-6.53 -2.35,2.35 -4.41,4.99 -6.98,7.11 -3.75,1.46 -4.63,-3.6 -6.14,-5.86 -2.47,2.27 -4.75,4.73 -7.01,7.19 -3.72,2.6 -5.82,-1.73 -7.21,-4.49 -2.39,1.93 -4.66,4.09 -7.46,5.41 -1.97,0.07 -3.76,-2.24 -2.53,-4 2.23,-2.67 5.11,-4.71 7.7,-7.02 1.48,-1.07 3.26,-3.11 5.25,-1.87 1.32,1.53 1.53,3.68 2.26,5.53 2.96,-2.49 5.54,-5.79 9.31,-7.05 2.98,-0.67 4.05,2.9 5.57,4.71 z"
         id="path34-9"
         style="fill:#ffe5ed;fill-opacity:1" />
    </g>
    <path
       fill="#2298d3"
       opacity="1"
       d="m 381.69155,277.46788 c 5.48995,-2.20163 11.06494,-4.23435 16.80943,-5.66146 7.02257,-2.12401 14.57444,-2.55613 21.77726,-1.11886 1.63509,0.32502 3.43708,1.15146 3.87376,2.92968 1.03979,2.51718 -0.42555,5.07992 -2.03031,6.96026 -2.28626,2.57653 -4.87916,4.85907 -7.44391,7.15216 -6.37176,5.03724 -12.74544,8.2493 -19.39015,11.33693 -5.51867,2.66142 -11.26973,4.80642 -16.83756,7.36528 -5.65129,2.58483 -11.29667,5.21873 -16.62202,8.43959 -6.13029,3.63183 -12.02971,7.78778 -16.97061,12.95636 -4.08081,4.20753 -6.71061,9.68638 -7.79969,15.42151 -0.18688,1.43531 -1.63098,2.5384 -3.06728,2.29392 -1.43417,-0.16909 -2.55977,-1.64333 -2.28379,-3.06997 1.19454,-6.56995 4.12828,-12.87168 8.68714,-17.77877 4.99974,-5.44838 11.06344,-9.81469 17.33386,-13.67939 5.97154,-3.69784 12.33461,-6.69039 18.70291,-9.62288 3.87379,-1.7541 7.82793,-3.31635 11.72021,-5.0284 1.66333,-0.71694 3.31152,-1.47686 4.95789,-2.24352 l 3.99634,-1.87732 c 3.40109,-1.84446 6.89645,-3.5261 10.14216,-5.63998 2.73956,-1.77571 5.12274,-4.03099 7.50575,-6.24645 1.46134,-1.3898 2.97038,-2.76347 4.10731,-4.4461 -5.02765,-0.94592 -10.22305,-0.83055 -15.23264,0.15371 -6.10563,1.46962 -12.13435,3.28029 -17.95263,5.66034 -1.43058,-1.31657 -2.75555,-2.75188 -3.98339,-4.25661 z"
       id="path13"
       style="fill:#390091;fill-opacity:1;stroke-width:0.349358" />
    <g
       id="#ff85a9ff-92"
       style="fill:#a179dc;fill-opacity:1"
       transform="matrix(0.00696108,0.41333964,-0.41333964,0.00696108,338.27119,63.473979)">
      <path
         fill="#ff85a9"
         opacity="1"
         d="m 472.59,147.66 c 1.76,5.86 2.87,12.02 1.91,18.14 -3.89,-1.63 -6.02,-5.32 -7.67,-8.97 -0.82,4.48 -3.51,8.13 -5.42,12.15 -0.54,-3.68 -2.63,-7.08 -1.82,-10.94 -1.41,1.88 -2.99,3.66 -3.94,5.84 -0.09,-5.54 0.49,-11.47 4.51,-15.7"
         id="path2-3-28"
         style="fill:#a179dc;fill-opacity:1" />
    </g>
    <g
       id="#ff85a9ff-92-9-3"
       style="fill:#390091;fill-opacity:1"
       transform="matrix(0.1950553,-0.36448806,0.36448806,0.1950553,173.47372,320.21106)">
      <path
         fill="#ff85a9"
         opacity="1"
         d="m 163.7545,364.64154 c 0.55,-2.61 0.83,-5.27 0.92,-7.93 -1.54,0.56 -3.07,1.13 -4.6,1.71 -1.08,-1.31 -2.15,-2.62 -3.23,-3.92 -0.96,1.51 -1.91,3.03 -2.85,4.56 -1.3,0.13 -2.6,0.26 -3.89,0.4 0.47,2.24 0.97,4.49 1.51,6.72"
         id="path2-3-28-7-6"
         style="fill:#390091;fill-opacity:1" />
    </g>
    <g
       id="#ff85a9ff-0"
       style="fill:#280068;fill-opacity:1"
       transform="matrix(-0.28617365,0.29833327,-0.29833327,-0.28617365,530.26829,393.19157)">
      <path
         fill="#ff85a9"
         opacity="1"
         d="m 200.50177,470.84563 c 1.14595,-3.80656 3.38803,-8.779 7.74266,-9.34699 l -1.15592,0.72743 c 0.21922,1.08616 0.64771,3.25849 0.85697,4.35462 2.33177,-0.25908 4.17526,-2.43141 6.27783,-3.51758 0.26905,-0.59789 0.80715,-1.7837 1.0762,-2.37162 0.3986,5.39096 -2.47127,10.17407 -6.60667,13.41264 3.42345,-0.43345 10.69228,4.87279 10.69228,4.87279 0,0 -11.59905,3.84642 -17.53807,2.3218"
         id="path2-3-23"
         style="fill:#280068;fill-opacity:1;stroke-width:0.996481" />
    </g>
    <path
       fill="#71c7f2"
       opacity="1"
       d="m 396.04201,231.18261 c 1.03721,-0.41587 2.40409,-2.47725 3.3637,-1.10455 -0.52777,1.0232 -1.23358,1.94768 -1.92451,2.86718 2.32636,-0.84677 4.73194,-1.48611 7.18713,-1.8389 -2.17192,2.35353 -5.14509,3.70972 -8.12842,4.73984 0.98885,0.89839 2.02221,1.81157 2.54203,3.08088 -1.86289,-0.33939 -3.65192,-0.97032 -5.36206,-1.75943"
       id="path2-1"
       style="fill:#390091;fill-opacity:1;stroke-width:0.698714" />
    <g
       id="#ff85a9ff-92-9"
       style="fill:#a179dc;fill-opacity:1"
       transform="matrix(0.33419224,-0.24333855,0.24333855,0.33419224,74.261735,241.70545)">
      <path
         fill="#ff85a9"
         opacity="1"
         d="m 485.28,257.67 c -2,-3.22 -4.91,-6.56 -4.57,-10.57 2.83,-1.31 5.77,0.5 7.63,2.59 0.19,-3.61 0.42,-7.29 -0.96,-10.72 5.86,0.98 8.31,6.93 10.3,11.8 0.55,-2.45 2.2,-4.29 4.28,-5.61 4.46,2.44 3.77,8.27 1.5,12.02"
         id="path2-3-28-7"
         style="fill:#a179dc;fill-opacity:1" />
    </g>
    <g
       id="#ff85a9ff-9"
       style="fill:#a179dc;fill-opacity:1"
       transform="matrix(-0.37981587,0.16321156,-0.16321156,-0.37981587,589.70771,440.25142)">
      <path
         fill="#ff85a9"
         opacity="1"
         d="m 228.06,683.38 c -2.53,4.01 -5.56,8.29 -10.5,9.32 0.4,-3.13 1.61,-6.09 3.5,-8.62 -2.28,0.33 -4.53,0.95 -6.84,0.98 -1.97,0.04 -4.01,-1.21 -5.88,-0.18 2.45,-2.6 6.15,-3.89 9.5,-5.01 -2.77,-0.73 -5.42,-1.86 -7.82,-3.43 4.3,-2.67 9.68,-0.41 13.88,1.44"
         id="path2-3-2-32"
         style="fill:#a179dc;fill-opacity:1" />
    </g>
    <text
       xml:space="preserve"
       style="font-size:35.2778px;line-height:0.25;font-family:sans-serif;stroke-width:0.264583"
       x="364.23325"
       y="267.44565"
       id="text16817"><tspan
         id="tspan16815"
         style="font-style:normal;font-variant:normal;font-weight:normal;font-stretch:normal;font-size:35.2778px;font-family:'Linux Libertine Initials O';-inkscape-font-specification:'Linux Libertine Initials O';fill:#ffffff;fill-opacity:1;stroke-width:0.264583"
         x="364.23325"
         y="267.44565">#</tspan></text>
  </g>
</svg>
