<?xml version="1.0" encoding="UTF-8" standalone="no"?>
<svg
   viewBox="-0.2 -1 378.45312 357.96506"
   version="1.1"
   id="svg18"
   width="378.45312"
   height="357.96506"
   xmlns="http://www.w3.org/2000/svg"
   xmlns:svg="http://www.w3.org/2000/svg"
   xmlns:rdf="http://www.w3.org/1999/02/22-rdf-syntax-ns#"
   xmlns:cc="http://creativecommons.org/ns#"
   xmlns:dc="http://purl.org/dc/elements/1.1/">
  <metadata
     id="metadata24">
    <rdf:RDF>
      <cc:Work
         rdf:about="">
        <dc:format>image/svg+xml</dc:format>
        <dc:type
           rdf:resource="http://purl.org/dc/dcmitype/StillImage" />
      </cc:Work>
    </rdf:RDF>
  </metadata>
  <defs
     id="defs22" />
  <path
     id="puddle"
     fill="#9cdaf1"
     d="m 296.73297,319.78904 c 0,20.533 -47.56,37.176 -106.22,37.176 -58.67,0 -106.230001,-16.643 -106.230001,-37.176 0,-20.533 47.558001,-37.18 106.230001,-37.18 58.66,0 106.22,16.65 106.22,37.18 z" />
  <g
     id="shadow-legs"
     fill="#7dbbe6"
     transform="translate(-0.20703125,24.359044)">
    <path
       d="m 161.85,331.22 v -26.5 c 0,-3.422 -0.619,-6.284 -1.653,-8.701 6.853,5.322 7.316,18.695 7.316,18.695 v 17.004 c 6.166,0.481 12.534,0.773 19.053,0.861 l -0.172,-16.92 c -0.944,-23.13 -20.769,-25.961 -20.769,-25.961 -7.245,-1.645 -7.137,1.991 -6.409,4.34 -7.108,-12.122 -26.158,-10.556 -26.158,-10.556 -6.611,2.357 -0.475,6.607 -0.475,6.607 10.387,3.775 11.33,15.105 11.33,15.105 v 23.622 c 5.72,0.98 11.71,1.79 17.94,2.4 z"
       id="path3" />
    <path
       d="m 245.4,283.48 c 0,0 -19.053,-1.566 -26.16,10.559 0.728,-2.35 0.839,-5.989 -6.408,-4.343 0,0 -19.824,2.832 -20.768,25.961 l -0.174,16.946 c 6.509,-0.025 12.876,-0.254 19.054,-0.671 v -17.219 c 0,0 0.465,-13.373 7.316,-18.695 -1.034,2.417 -1.653,5.278 -1.653,8.701 v 26.775 c 6.214,-0.544 12.211,-1.279 17.937,-2.188 v -24.113 c 0,0 0.944,-11.33 11.33,-15.105 0,-0.01 6.13,-4.26 -0.48,-6.62 z"
       id="path5" />
  </g>
  <path
     id="cat"
     d="m 273.77852,-0.99837753 c -0.36886,0.01751 -0.77367,0.176861 -1.20703,0.525391 C 270.15282,5.8631595 267.1242,12.79845 260.85078,16.175451 c -4.96125,2.900705 -9.49681,6.505521 -14.71093,8.974609 -7.3362,3.380991 -14.92177,9.109052 -17.4375,17.003906 -12.88401,-3.22 -26.55316,-4.833985 -40.28516,-4.833984 -15.109,0 -30.37624,1.924078 -44.61524,5.830078 -0.0508,-0.04721 -0.10151,-0.09167 -0.15234,-0.138672 -2.86126,-4.245387 -6.16825,-8.432193 -10.87695,-10.710937 C 123.57472,28.185488 114.38748,24.00698 104.8957,20.595373 96.333358,16.951741 88.261145,10.248146 85.594922,1.0426385 85.133678,0.93380047 84.210476,0.72369447 83.749219,0.61490347 82.75995,4.1473925 82.738875,7.8527125 82.727735,11.495763 c -0.219889,2.235821 1.607644,3.947721 1.583984,6.158203 0.0087,2.893256 1.626004,5.340179 2.693359,7.923828 -2.218666,-1.78347 -3.946978,-4.040714 -5.601562,-6.326171 -0.536227,-0.0484 -1.610034,-0.145204 -2.138672,-0.191407 1.079114,4.245937 1.333775,8.729289 3.345703,12.703125 -0.508945,-0.426483 -1.526445,-1.280308 -2.042969,-1.708984 -1.147146,0.530375 -2.274605,1.1085 -3.380859,1.724609 0.994491,3.630163 4.103363,6.025247 7.044922,8.091797 -1.63613,7.073711 1.010874,14.334137 3.923828,20.728515 -3.550236,0.746609 -7.156603,0.06472 -10.710938,-0.224609 -1.422379,0.20437 -1.55375,2.022133 -0.386718,2.671875 2.700836,1.791598 5.709684,3.056377 8.623047,4.482422 -1.768281,2.535127 -4.234806,4.367135 -6.779297,6.037109 -1.348756,0.545942 -0.477609,2.555098 0.791015,2.314453 3.016082,-0.120993 10.128193,-3.453444 13.248047,-4.054687 -11.495,12.406 -18.51172,28.244159 -18.511718,47.660159 0,14.65799 1.66814,27.80732 5.74414,39.23632 -19.511,-0.71 -50.323047,-0.43673 -80.373047,5.57227 l 0.27539063,1.38867 c 30.23100037,-6.046 61.23690637,-6.25549 80.62890637,-5.52149 0.898,2.366 1.899485,4.66091 3.021484,6.87891 -19.177,0.618 -51.921734,3.06106 -83.30273413,11.91406 l 0.38671878,1.35938 C 32.438766,171.39612 65.467203,169.01426 84.458203,168.43326 c 11.458,21.358 34.048327,35.15237 74.236327,39.48437 -5.704,3.833 -11.52286,10.34805 -13.88086,21.37305 -7.773,3.718 -32.37957,12.79239 -47.142576,-12.59961 0,0 -8.264031,-15.10801 -24.082031,-16.29101 0,0 -15.343594,-0.2345 -1.058594,9.5625 0,0 10.267562,4.83657 17.351562,23.01757 0,0 9.239982,31.0115 53.833989,21.0625 v 32.03125 c 0,0 -0.94113,11.33047 -11.32813,15.10547 0,0 -6.13739,4.24847 0.47461,6.60547 0,0 28.79102,2.36072 28.79102,-21.23828 v -34.92773 c 0,0 -1.14094,-13.85297 5.66406,-18.66797 v 57.37109 c 0,0 -0.46978,13.68786 -7.55078,18.88086 0,0 -4.72389,8.49372 5.66211,6.13672 0,0 19.82453,-2.83194 20.76953,-25.96094 l 0.44922,-58.05859 h 4.76367 l 0.45312,58.05859 c 0.943,23.129 20.76758,25.96094 20.76758,25.96094 10.383,2.357 5.66406,-6.13672 5.66406,-6.13672 -7.08,-5.193 -7.55078,-18.88086 -7.55078,-18.88086 v -56.875 c 6.801,5.296 5.66211,18.16992 5.66211,18.16992 v 34.92969 c 0,23.6 28.79297,21.23828 28.79297,21.23828 6.606,-2.357 0.47461,-6.60742 0.47461,-6.60742 -10.386,-3.775 -11.33008,-15.10352 -11.33008,-15.10352 v -45.78711 c 0,-17.854 -7.51714,-27.30782 -14.86914,-32.29882 42.859,-4.25 63.42535,-18.0898 72.90235,-39.5918 18.773,0.516 52.55704,2.80197 84.87304,11.91797 l 0.38477,-1.35938 c -32.131,-9.063 -65.69325,-11.40698 -84.65625,-11.95898 0.898,-2.172 1.68291,-4.43186 2.3789,-6.75586 19.25,-0.8 51.38016,-0.78906 82.66016,5.46094 l -0.0449,-0.0215 0.2793,-1.38867 c -31.162,-6.231 -63.14033,-6.29423 -82.48633,-5.49023 3.178,-11.451 4.13281,-24.62732 4.13281,-39.32031 0,-21.073002 -7.91653,-37.931768 -20.76953,-50.759768 0.32223,-1.040133 0.65677,-2.282159 0.97461,-3.673828 0.6799,-0.649141 1.38122,-1.28847 1.68164,-1.925781 0.0724,-0.989366 -0.32733,-1.563267 -0.94531,-1.931641 0.26836,-1.725403 0.4769,-3.624941 0.59961,-5.675781 0.7464,-0.939332 1.40978,-1.939403 1.93359,-3.03125 0.63524,-1.055934 0.45944,-2.599256 -0.51953,-3.373047 -0.44445,-0.164559 -0.90061,-0.275842 -1.36133,-0.365234 -0.0956,-2.078344 -0.30357,-4.272277 -0.63281,-6.560547 0.70023,-2.964532 0.94107,-6.095762 1.70508,-9.021484 0.53945,-1.835426 -1.04005,-2.671186 -2.49414,-3.175781 1.05818,-3.672976 2.11212,-7.353587 2.9121,-11.078125 -0.4183,-0.448625 -1.2516,-1.367771 -1.66992,-1.816407 -1.07459,0.893799 -2.12229,1.808905 -3.15429,2.736328 1.976,-5.850422 -2.9555,-10.8915265 -2.15039,-16.7070305 0.29553,-1.590866 -0.63211,-4.195034 -2.23047,-4.11914103 z M 272.63008,14.069982 c 2.06854,3.408035 -0.3868,6.837811 -1.17578,10.304687 -4.3373,0.119227 -11.77291,1.318044 -22.66602,6.326172 5.84755,-3.871175 12.52095,-6.783778 18.0918,-10.945312 2.28268,-1.539634 3.08917,-4.619713 5.75,-5.685547 z M 91.501172,20.169591 c 1.386346,-0.109615 2.563075,0.771983 3.660156,1.59961 2.815709,2.15293 6.163202,3.304309 9.382812,4.71289 -3.59562,0.624575 -6.748981,2.061155 -9.310546,4.261719 0.0087,-1.685539 -0.03755,-3.369228 -0.207031,-5.046875 -1.396101,-1.816473 -3.926918,-2.835259 -4.132813,-5.416016 0.207031,-0.05917 0.409373,-0.09567 0.607422,-0.111328 z" />
  <path
     id="face"
     fill="#f4cbb2"
     d="m 257.98297,118.49104 c 9.231,8.363 14.631,18.462 14.631,29.343 0,50.804 -37.872,52.181 -84.585,52.181 -46.721,0 -84.589,-7.035 -84.589,-52.181 0,-10.809 5.324,-20.845 14.441,-29.174 15.208,-13.881 40.946,-6.531 70.147,-6.531 29.07,-0.004 54.72,-7.429 69.95,6.357 z" />
  <path
     id="eyes"
     fill="#ffffff"
     d="m 159.89297,150.41904 c 0,13.994 -7.88,25.336 -17.6,25.336 -9.72,0 -17.6,-11.342 -17.6,-25.336 0,-13.992 7.88,-25.33 17.6,-25.33 9.72,0.01 17.6,11.34 17.6,25.33 z m 94.43,0 c 0,13.994 -7.88,25.336 -17.6,25.336 -9.72,0 -17.6,-11.342 -17.6,-25.336 0,-13.992 7.88,-25.33 17.6,-25.33 9.72,0.01 17.6,11.34 17.6,25.33 z" />
  <g
     fill="#ad5c51"
     id="g14"
     transform="translate(-0.20703125,24.359044)">
    <path
       id="pupils"
       d="m 154.46,126.38 c 0,9.328 -5.26,16.887 -11.734,16.887 -6.474,0 -11.733,-7.559 -11.733,-16.887 0,-9.331 5.255,-16.894 11.733,-16.894 6.47,0 11.73,7.56 11.73,16.89 z m 94.42,0 c 0,9.328 -5.26,16.887 -11.734,16.887 -6.474,0 -11.733,-7.559 -11.733,-16.887 0,-9.331 5.255,-16.894 11.733,-16.894 6.47,0 11.73,7.56 11.73,16.89 z" />
    <circle
       id="nose"
       cx="188.5"
       cy="148.56"
       r="4.401" />
    <path
       id="mouth"
       d="m 178.23,159.69 c -0.26,-0.738 0.128,-1.545 0.861,-1.805 0.737,-0.26 1.546,0.128 1.805,0.861 1.134,3.198 4.167,5.346 7.551,5.346 3.384,0 6.417,-2.147 7.551,-5.346 0.26,-0.738 1.067,-1.121 1.805,-0.861 0.738,0.26 1.121,1.067 0.862,1.805 -1.529,4.324 -5.639,7.229 -10.218,7.229 -4.579,0 -8.68,-2.89 -10.21,-7.22 z" />
  </g>
  <path
     id="octo"
     fill="#c3e4d8"
     d="m 80.433969,204.17904 c 0,1.174 -1.376,2.122 -3.07,2.122 -1.693,0 -3.07,-0.948 -3.07,-2.122 0,-1.175 1.377,-2.127 3.07,-2.127 1.694,0 3.07,0.95 3.07,2.13 z m 8.5,4.72 c 0,1.174 -1.376,2.122 -3.07,2.122 -1.693,0 -3.07,-0.948 -3.07,-2.122 0,-1.175 1.377,-2.127 3.07,-2.127 1.694,0 3.07,0.95 3.07,2.13 z m 5.193,6.14 c 0,1.174 -1.376,2.122 -3.07,2.122 -1.693,0 -3.07,-0.948 -3.07,-2.122 0,-1.175 1.377,-2.127 3.07,-2.127 1.694,0 3.07,0.95 3.07,2.13 z m 4.72,7.08 c 0,1.174 -1.376,2.122 -3.07,2.122 -1.693,0 -3.07,-0.948 -3.07,-2.122 0,-1.175 1.377,-2.127 3.07,-2.127 1.694,0 3.07,0.95 3.07,2.13 z m 5.188001,6.61 c 0,1.174 -1.376,2.122 -3.07,2.122 -1.693001,0 -3.070001,-0.948 -3.070001,-2.122 0,-1.175 1.377,-2.127 3.070001,-2.127 1.694,0 3.07,0.95 3.07,2.13 z m 7.09,5.66 c 0,1.174 -1.376,2.122 -3.07,2.122 -1.693,0 -3.07,-0.948 -3.07,-2.122 0,-1.175 1.377,-2.127 3.07,-2.127 1.694,0 3.07,0.95 3.07,2.13 z m 9.91,3.78 c 0,1.174 -1.376,2.122 -3.07,2.122 -1.693,0 -3.07,-0.948 -3.07,-2.122 0,-1.175 1.377,-2.127 3.07,-2.127 1.694,0 3.07,0.95 3.07,2.13 z m 9.87,0 c 0,1.174 -1.376,2.122 -3.07,2.122 -1.693,0 -3.07,-0.948 -3.07,-2.122 0,-1.175 1.377,-2.127 3.07,-2.127 1.694,0 3.07,0.95 3.07,2.13 z m 10.01,-1.64 c 0,1.174 -1.376,2.122 -3.07,2.122 -1.693,0 -3.07,-0.948 -3.07,-2.122 0,-1.175 1.377,-2.127 3.07,-2.127 1.694,0 3.07,0.95 3.07,2.13 z" />
  <path
     id="drop"
     fill="#9cdaf1"
     d="m 69.161969,210.47904 -3.066,10.683 c 0,0 -0.8,3.861 2.84,4.546 3.8,-0.074 3.486,-3.627 3.223,-4.781 z" />
  <path
     fill="#e94475"
     opacity="1"
     d="m 266.88047,19.754477 c 2.28279,-1.539675 3.08784,-4.619536 5.74866,-5.685403 2.40138,3.956383 -1.30344,7.94377 -1.40779,11.982235 2.07201,10.109264 3.115,21.443271 -1.97533,30.868779 -0.68344,0.954796 -1.1462,2.572206 -2.54119,2.592389 -2.80507,-0.262321 -5.54565,-1.643294 -7.37129,-3.788036 -0.0686,-3.127518 3.36125,-4.553808 4.02657,-7.371931 -2.43502,0.821304 -4.4257,2.449506 -6.54775,3.809017 -0.39462,-0.149205 -1.17186,-0.442205 -1.5666,-0.591367 0.78481,-2.922989 1.54231,-5.86549 1.96743,-8.871311 -3.44841,2.587272 -5.66695,6.848235 -9.85012,8.360459 -2.27765,-1.735081 -0.23737,-4.705052 1.11944,-6.352176 1.27539,-1.914768 4.19503,-3.138192 3.90578,-5.744546 -5.54081,1.657534 -9.02873,6.507941 -13.24976,10.103609 -3.68765,-1.649539 -2.04361,-6.1409 -0.3496,-8.711351 6.46032,-10.222108 18.81464,-13.670297 28.09155,-20.600367 z"
     id="path5-6-1"
     style="fill:#c3e4d8;fill-opacity:1;stroke-width:0.930472" />
  <path
     fill="#e94475"
     opacity="1"
     d="m 90.893967,20.280965 c 1.65625,-0.473397 3.012769,0.543249 4.266576,1.489108 3.974231,3.038753 9.016067,4.062337 13.247487,6.666353 7.80729,4.55024 17.30919,7.529526 22.20351,15.704412 -4.11728,3.103721 -9.52767,1.792828 -13.93565,0.139631 0.88791,2.778095 4.40902,3.60803 5.46803,6.419205 -2.88504,0.462774 -5.85266,0.671713 -8.74079,0.12347 -1.79061,-0.82196 -3.44167,-1.899189 -5.23885,-2.698409 1.45883,2.820104 3.21038,5.5935 3.16351,8.905932 -2.83687,1.289725 -5.35701,3.130986 -7.74433,5.109231 -2.14796,-2.510339 -5.566206,-3.639004 -7.229446,-6.575729 -2.865379,-3.777315 -1.525723,-8.71948 -1.532811,-13.06585 0.05777,-5.592297 0.768002,-11.225755 0.204808,-16.800629 -1.396101,-1.816473 -3.926149,-2.835968 -4.132044,-5.416725 z"
     id="path7-2"
     style="fill:#c3e4d8;fill-opacity:1;stroke-width:0.788873" />
  <path
     fill="#71c7f2"
     opacity="1"
     d="m 298.97072,113.20978 c 1.54079,-1.47417 2.49491,-6.09662 5.17055,-4.3485 -0.20687,2.18723 -0.79897,4.32626 -1.36835,6.44595 3.51704,-3.15417 7.32194,-5.99739 11.41851,-8.36849 -2.17183,5.71239 -6.47186,10.22868 -11.02181,14.17487 2.39007,0.88741 4.86941,1.76937 6.69276,3.64722 -3.54011,0.72414 -7.15682,0.87949 -10.74628,0.69863"
     id="path2-1"
     style="fill:#000000;fill-opacity:1;stroke-width:1.33333" />
  <g
     id="#ff85a9ff-9"
     style="fill:#000000;fill-opacity:1"
     transform="matrix(0.78887281,0,0,0.78887281,-90.169942,-367.87641)">
    <path
       fill="#ff85a9"
       opacity="1"
       d="m 228.06,683.38 c -2.53,4.01 -5.56,8.29 -10.5,9.32 0.4,-3.13 1.61,-6.09 3.5,-8.62 -2.28,0.33 -4.53,0.95 -6.84,0.98 -1.97,0.04 -4.01,-1.21 -5.88,-0.18 2.45,-2.6 6.15,-3.89 9.5,-5.01 -2.77,-0.73 -5.42,-1.86 -7.82,-3.43 4.3,-2.67 9.68,-0.41 13.88,1.44"
       id="path2-3-2"
       style="fill:#000000;fill-opacity:1" />
  </g>
  <g
     id="#ff85a9ff-0"
     style="fill:#000000;fill-opacity:1"
     transform="matrix(0.7482795,-0.24979611,0.24979611,0.7482795,-39.79151,-78.624736)">
    <path
       fill="#ff85a9"
       opacity="1"
       d="m 200.50177,470.84563 c 1.14595,-3.80656 3.38803,-8.779 7.74266,-9.34699 l -1.15592,0.72743 c 0.21922,1.08616 0.64771,3.25849 0.85697,4.35462 2.33177,-0.25908 4.17526,-2.43141 6.27783,-3.51758 0.26905,-0.59789 0.80715,-1.7837 1.0762,-2.37162 0.3986,5.39096 -2.47127,10.17407 -6.60667,13.41264 3.42345,-0.43345 10.69228,4.87279 10.69228,4.87279 0,0 -11.59905,3.84642 -17.53807,2.3218"
       id="path2-3-23"
       style="fill:#000000;fill-opacity:1;stroke-width:0.996481" />
  </g>
  <g
     id="#ff85a9ff-92"
     style="fill:#000000;fill-opacity:1"
     transform="matrix(0.78887281,0,0,0.78887281,-242.95107,134.13779)">
    <path
       fill="#ff85a9"
       opacity="1"
       d="m 472.59,147.66 c 1.76,5.86 2.87,12.02 1.91,18.14 -3.89,-1.63 -6.02,-5.32 -7.67,-8.97 -0.82,4.48 -3.51,8.13 -5.42,12.15 -0.54,-3.68 -2.63,-7.08 -1.82,-10.94 -1.41,1.88 -2.99,3.66 -3.94,5.84 -0.09,-5.54 0.49,-11.47 4.51,-15.7"
       id="path2-3-28"
       style="fill:#000000;fill-opacity:1" />
  </g>
  <g
     id="#ff85a9ff-92-9"
     style="fill:#000000;fill-opacity:1"
     transform="matrix(0.78887281,0,0,0.78887281,-215.68931,-162.99182)">
    <path
       fill="#ff85a9"
       opacity="1"
       d="m 485.28,257.67 c -2,-3.22 -4.91,-6.56 -4.57,-10.57 2.83,-1.31 5.77,0.5 7.63,2.59 0.19,-3.61 0.42,-7.29 -0.96,-10.72 5.86,0.98 8.31,6.93 10.3,11.8 0.55,-2.45 2.2,-4.29 4.28,-5.61 4.46,2.44 3.77,8.27 1.5,12.02"
       id="path2-3-28-7"
       style="fill:#000000;fill-opacity:1" />
  </g>
  <g
     id="#ff85a9ff-92-9-3"
     style="fill:#000000;fill-opacity:1"
     transform="matrix(-0.08358666,0.78443202,-0.78443202,-0.08358666,530.95636,159.16838)">
    <path
       fill="#ff85a9"
       opacity="1"
       d="m 163.7545,364.64154 c 0.55,-2.61 0.83,-5.27 0.92,-7.93 -1.54,0.56 -3.07,1.13 -4.6,1.71 -1.08,-1.31 -2.15,-2.62 -3.23,-3.92 -0.96,1.51 -1.91,3.03 -2.85,4.56 -1.3,0.13 -2.6,0.26 -3.89,0.4 0.47,2.24 0.97,4.49 1.51,6.72"
       id="path2-3-28-7-6"
       style="fill:#000000;fill-opacity:1" />
  </g>
</svg>
