<?xml version="1.0" encoding="UTF-8" standalone="no"?>
<!-- Creator: CorelDRAW X8 -->

<svg
   xml:space="preserve"
   width="62.3409mm"
   height="70.4949mm"
   version="1.1"
   style="shape-rendering:geometricPrecision; text-rendering:geometricPrecision; image-rendering:optimizeQuality; fill-rule:evenodd; clip-rule:evenodd"
   viewBox="0 0 6409 7247"
   id="svg64"
   sodipodi:docname="trans_csharp.svg"
   inkscape:version="1.2 (dc2aedaf03, 2022-05-15)"
   xmlns:inkscape="http://www.inkscape.org/namespaces/inkscape"
   xmlns:sodipodi="http://sodipodi.sourceforge.net/DTD/sodipodi-0.dtd"
   xmlns:xlink="http://www.w3.org/1999/xlink"
   xmlns="http://www.w3.org/2000/svg"
   xmlns:svg="http://www.w3.org/2000/svg"><sodipodi:namedview
   id="namedview66"
   pagecolor="#505050"
   bordercolor="#eeeeee"
   borderopacity="1"
   inkscape:showpageshadow="0"
   inkscape:pageopacity="0"
   inkscape:pagecheckerboard="0"
   inkscape:deskcolor="#505050"
   inkscape:document-units="mm"
   showgrid="false"
   inkscape:zoom="2.0859265"
   inkscape:cx="21.812849"
   inkscape:cy="168.03085"
   inkscape:window-width="1920"
   inkscape:window-height="1001"
   inkscape:window-x="-9"
   inkscape:window-y="-9"
   inkscape:window-maximized="1"
   inkscape:current-layer="Camada_x0020_1" />
 <defs
   id="defs37"><linearGradient
   inkscape:collect="always"
   id="linearGradient386"><stop
     style="stop-color:#5ccefa;stop-opacity:1;"
     offset="0"
     id="stop382" /><stop
     style="stop-color:#f578d2;stop-opacity:1;"
     offset="0.06067364"
     id="stop5519" /><stop
     style="stop-color:#f578d2;stop-opacity:1;"
     offset="0.33268267"
     id="stop10609" /><stop
     style="stop-color:#ffffff;stop-opacity:1;"
     offset="0.38087904"
     id="stop5521" /><stop
     style="stop-color:#ffffff;stop-opacity:1;"
     offset="0.60743701"
     id="stop10607" /><stop
     style="stop-color:#f578d2;stop-opacity:1;"
     offset="0.66854686"
     id="stop10611" /><stop
     style="stop-color:#f578d2;stop-opacity:1;"
     offset="0.94287086"
     id="stop5523" /><stop
     style="stop-color:#5ccefa;stop-opacity:1;"
     offset="1"
     id="stop384" /></linearGradient>
  <style
   type="text/css"
   id="style35">
   <![CDATA[
    .fil1 {fill:none}
    .fil2 {fill:black}
    .fil0 {fill:#6C757D}
    .fil3 {fill:white}
   ]]>
  </style>
 <linearGradient
   inkscape:collect="always"
   xlink:href="#linearGradient386"
   id="linearGradient388"
   x1="3187.3779"
   y1="1122.0645"
   x2="3258.6038"
   y2="6036.6807"
   gradientUnits="userSpaceOnUse" /></defs>
 <g
   id="Camada_x0020_1"
   inkscape:label="Camada 1"
   inkscape:groupmode="layer"
   style="display:inline">
  <metadata
   id="CorelCorpID_0Corel-Layer" />
  <g
   id="_1763661615344"
   transform="translate(0,-0.38904565)">
   <path
   class="fil0"
   d="m 3457,70 1350,779 1340,774 c 166,96 262,264 262,459 v 1542 1541 c 0,196 -96,364 -262,460 l -1340,773 -1350,780 c -161,93 -343,93 -504,0 L 1602,6398 262,5625 C 96,5529 0,5361 0,5165 V 3624 2082 C 0,1887 96,1719 262,1623 L 1602,849 2953,70 c 161,-93 343,-93 504,0 z"
   id="path40"
   style="fill:url(#linearGradient388);fill-opacity:1" />
   <path
   class="fil1"
   d="m 4135,4155 c -184,325 -533,544 -934,544 -592,0 -1073,-480 -1073,-1072 0,-592 481,-1072 1073,-1072 399,0 746,217 931,539"
   id="path42" />
   <path
   class="fil1"
   d="m 5071,4702 c -373,641 -1067,1072 -1863,1072 -1189,0 -2153,-964 -2153,-2154 0,-1190 964,-2155 2153,-2155 799,0 1497,436 1868,1082"
   id="path44" />
   <line
   class="fil1"
   x1="4135"
   y1="4155"
   x2="5074"
   y2="4704"
   id="line46" />
   <line
   class="fil1"
   x1="4131"
   y1="3095"
   x2="5080"
   y2="2545"
   id="line48" />
   <path
   class="fil1"
   d="m 4876,3504 v -239 h 239 v 239 m 0,239 v 239 h -239 v -239"
   id="path50" />
   <path
   class="fil1"
   d="m 4876,3743 h -238 v -239 h 238 m 239,0 h 240 v 239 h -240"
   id="path52" />
   <path
   class="fil1"
   d="m 5772,3505 v -239 h 239 v 239 m 0,239 v 238 h -239 v -238"
   id="path54" />
   <path
   class="fil1"
   d="m 5772,3744 h -238 v -239 h 238 m 239,0 h 240 v 239 h -240"
   id="path56" />
   <path
   class="fil2"
   d="m 3200,4812 c -671,0 -1215,-544 -1215,-1214 0,-670 544,-1214 1215,-1214 450,0 844,246 1053,610 L 5321,2375 C 4901,1643 4112,1150 3207,1150 1861,1150 770,2242 770,3590 c 0,1348 1091,2440 2437,2440 900,0 1686,-488 2108,-1215 L 4256,4196 c -208,368 -603,616 -1056,616 z"
   id="path58" />
   <path
   class="fil3"
   d="m 3200,4812 c -671,0 -1215,-544 -1215,-1214 0,-670 544,-1214 1215,-1214 450,0 844,246 1053,610 l 810,-469 258,-150 C 4901,1643 4112,1150 3207,1150 1862,1150 770,2242 770,3590 c 0,1348 1092,2440 2437,2440 900,0 1686,-488 2108,-1215 L 4256,4196 c -4,8 -8,15 -13,23 -211,355 -600,593 -1043,593 z"
   id="path60"
   style="fill:#1e1e1e;fill-opacity:1" />
  </g>
 <rect
   style="fill:#1e1e1e;fill-opacity:1;stroke-width:13.9376"
   id="rect29218"
   width="229.36792"
   height="1207.8594"
   x="5739.9189"
   y="1189.9375"
   ry="94.4459"
   transform="matrix(0.95312358,0.30258129,-0.06985885,0.99755689,0,0)" /><rect
   style="fill:#1e1e1e;fill-opacity:1;stroke-width:14.0156"
   id="rect30674"
   width="219.13239"
   height="1278.4619"
   x="2995.5591"
   y="-6883.9468"
   ry="99.966515"
   transform="matrix(-0.33539518,0.94207753,-0.99805592,-0.06232486,0,0)" /><rect
   style="fill:#1e1e1e;fill-opacity:1;stroke-width:13.9376"
   id="rect30678"
   width="229.36792"
   height="1207.8594"
   x="5192.604"
   y="1310.5627"
   ry="94.4459"
   transform="matrix(0.95312358,0.30258129,-0.06985885,0.99755689,0,0)" /><rect
   style="fill:#1e1e1e;fill-opacity:1;stroke-width:14.0156"
   id="rect30680"
   width="219.13239"
   height="1278.4619"
   x="3405.6179"
   y="-6981.7119"
   ry="99.966515"
   transform="matrix(-0.33539518,0.94207753,-0.99805592,-0.06232486,0,0)" /></g>
</svg>
