<?xml version="1.0" encoding="UTF-8" standalone="no"?>
<!-- Svg Vector Icons : http://www.onlinewebfonts.com/icon -->

<svg
   version="1.1"
   x="0px"
   y="0px"
   viewBox="0 0 1000 1000"
   enable-background="new 0 0 1000 1000"
   xml:space="preserve"
   id="svg18"
   sodipodi:docname="trans_java.svg"
   inkscape:version="1.2 (dc2aedaf03, 2022-05-15)"
   xmlns:inkscape="http://www.inkscape.org/namespaces/inkscape"
   xmlns:sodipodi="http://sodipodi.sourceforge.net/DTD/sodipodi-0.dtd"
   xmlns="http://www.w3.org/2000/svg"
   xmlns:svg="http://www.w3.org/2000/svg"><defs
   id="defs22" /><sodipodi:namedview
   id="namedview20"
   pagecolor="#505050"
   bordercolor="#eeeeee"
   borderopacity="1"
   inkscape:showpageshadow="0"
   inkscape:pageopacity="0"
   inkscape:pagecheckerboard="0"
   inkscape:deskcolor="#505050"
   showgrid="false"
   inkscape:zoom="0.57558492"
   inkscape:cx="379.61384"
   inkscape:cy="529.02706"
   inkscape:window-width="1920"
   inkscape:window-height="1001"
   inkscape:window-x="-9"
   inkscape:window-y="-9"
   inkscape:window-maximized="1"
   inkscape:current-layer="g16" />
<metadata
   id="metadata2"> Svg Vector Icons : http://www.onlinewebfonts.com/icon </metadata>
<g
   id="g16"
   transform="matrix(1.3110595,0,0,1.1730549,-194.23883,37.985737)"><path
     d="m 695.16426,415.86385 -1.13294,0.81601 c -0.20599,0.20401 -5.6647,4.18208 -8.54855,6.42613 l -12.97732,10.3022 16.47914,2.55005 c 1.02994,0.204 2.57486,0.306 4.84074,0.51001 28.22052,2.44804 45.00864,7.34414 49.64339,14.58628 8.13658,12.54624 7.6216,26.62251 -1.54491,38.45474 -10.40246,13.46426 -23.68876,25.09249 -38.82897,37.74073 -6.38566,5.4061 -14.00726,9.89419 -22.04084,14.79029 -3.91379,2.34604 -8.03358,4.79409 -12.15336,7.54814 l -23.37977,14.99429 27.80854,-1.73403 c 36.56308,-2.24405 87.03043,-29.17257 108.14432,-57.63112 12.97732,-17.54434 16.58213,-38.96475 9.4755,-57.42711 -6.69465,-17.64634 -22.04084,-30.19258 -42.02179,-34.57866 l -0.72096,-0.10201 c -6.28267,-0.71401 -12.66834,-1.12202 -19.157,-1.12202 -19.054,0 -32.13431,3.36607 -32.64928,3.46807 z"
     id="path4"
     style="stroke-width:1.02497;fill:#3d9dff;fill-opacity:1" /><path
     d="m 493.08887,406.68367 c 6.48866,6.01812 13.18331,12.34224 19.46598,18.66636 l 4.53176,4.59009 5.97369,-4.59009 c 0.92695,-0.71401 1.8539,-1.42803 2.88385,-2.24404 l 5.35572,-4.08008 -3.70781,-5.61011 c -4.01679,-5.91611 -7.93058,-11.83223 -11.94737,-17.74834 -8.75454,-13.05626 -17.81807,-26.52052 -26.57261,-39.88277 -24.6157,-37.74073 -22.14383,-68.95334 8.13658,-101.28796 10.19646,-10.91421 22.14383,-20.91041 33.67923,-30.60059 4.11978,-3.46807 8.34256,-7.03814 12.46234,-10.60821 32.54629,-28.15254 64.06264,-60.58917 74.87707,-106.59206 7.20962,-30.804599 1.02995,-56.7131 -18.43603,-77.215496 L 581.35524,10.1 l 5.87069,25.9085 c 9.26951,40.494783 -2.16289,75.78747 -34.81217,107.71409 -6.59166,6.42612 -13.80128,12.54624 -20.90791,18.46235 -5.14973,4.28409 -10.40245,8.67017 -15.44918,13.26026 -7.00364,6.42612 -14.31625,12.85225 -21.31988,19.07437 -20.59892,18.36035 -41.9188,37.33272 -61.48778,57.42711 -16.27314,16.62632 -19.36298,39.57676 -9.16651,66.19928 14.41924,37.33272 42.22778,63.34322 69.00637,88.53771 z"
     id="path6"
     style="stroke-width:1.02497;fill:#df6eb4;fill-opacity:1" /><path
     d="m 408.53031,493.79335 h 0.51497 c 0.82396,0 1.54492,0 2.36888,0.10201 l -7.20962,3.57006 c -9.26951,4.59009 -28.83849,20.6044 -26.98458,38.25074 1.33893,12.75025 12.97731,21.93043 34.50318,27.43853 19.25999,4.8961 43.15474,7.34415 70.96328,7.34415 0,0 0,0 0,0 78.68787,0 165.82129,-19.78839 166.64525,-19.99239 l 5.6647,-1.32603 v -5.71211 c 0,-2.55005 0,-4.69209 -18.64202,-28.45855 l -2.88385,-3.67207 -4.63476,1.12202 c -0.72096,0.20401 -71.16926,16.72833 -169.11712,16.72833 -7.20962,0 -14.41924,-0.102 -21.52587,-0.30601 -12.97731,-0.306 -21.73185,-3.26406 -24.82169,-8.16016 -3.29583,-5.5081 0.51497,-13.46426 0.51497,-13.46426 l 6.90064,-13.26025 c 1.33893,0 2.57486,0 3.91379,0 119.06175,0 247.18702,-35.80269 248.52595,-36.1087 l -2.57486,-14.17827 c -1.02995,0.102 -55.10211,4.28408 -110.61619,8.36416 4.63475,-4.69209 9.26951,-9.07818 13.80127,-13.26026 10.29946,-9.69019 19.98095,-18.87036 27.70555,-29.58057 15.34619,-21.52242 14.93421,-45.08487 -1.02995,-66.50529 -5.87069,-7.85415 -11.63839,-16.42231 -18.951,-27.84654 -14.00727,-22.03242 -13.3893,-35.08867 2.57486,-53.55103 9.99048,-11.62822 22.34983,-22.84844 38.00501,-34.47667 13.08031,-9.79219 27.08757,-18.76836 41.91879,-28.35654 6.69465,-4.38609 13.69828,-8.87418 20.90791,-13.56627 l 25.23367,-16.72832 -30.17741,3.46807 c -2.0599,0.204 -3.70781,0.306 -5.14973,0.408 -2.78086,0.20401 -5.25273,0.30601 -7.7246,1.42803 -8.54855,3.77408 -17.30309,7.54815 -25.85164,11.22022 -22.24683,9.58818 -45.31762,19.38037 -66.94649,31.41661 -16.17015,9.07817 -31.92832,23.66445 -44.18468,41.10679 -24.30672,34.47667 -20.18694,71.91139 12.66834,114.34421 22.45282,29.07056 22.7618,33.76265 4.11978,63.95524 -1.64791,2.65205 -1.23593,4.99809 -0.92695,7.44614 0.20599,1.22403 0.41198,2.85606 0.72096,5.40611 l 0.51498,4.59008 c -49.5404,3.57007 -97.02091,6.93614 -105.98144,6.93614 h -0.41198 c -33.57623,-0.81602 -43.6697,-4.48809 -46.55355,-6.22212 1.54492,-1.83604 6.28267,-6.22212 20.18694,-12.75025 10.50545,-4.99809 20.59892,-8.56816 21.01089,-8.77217 l 5.35572,-1.93804 -1.13294,-12.13823 h -6.69465 c -2.26588,0 -27.60255,6.52813 -48.09847,13.46426 -44.18468,14.99429 -50.57034,25.39849 -50.98232,33.66065 -0.72096,14.89229 20.9079,23.25645 74.56808,28.56055 z"
     id="path8"
     style="stroke-width:1.02497;fill:#3d9dff;fill-opacity:1" /><path
     d="m 460.85156,728.8059 c -65.60755,0 -99.38978,-8.77217 -99.69876,-8.87418 l -3.29583,-0.91801 c 10.09347,0.306 20.9079,0.51001 32.4433,0.51001 0,0 0,0 0,0 66.53451,0 157.47873,-5.81412 270.25781,-17.34034 h 0.20599 c 63.03269,-8.46616 90.73823,-29.37657 95.47598,-46.00289 2.16289,-7.34414 0.103,-14.17827 -5.5617,-18.76836 l -11.63839,-9.58819 -0.41198,14.58629 c -2.26588,3.97807 -21.21689,13.97427 -78.1729,24.78648 -39.24094,7.44614 -86.72144,13.36225 -115.35394,14.38227 -10.40245,0.40801 -21.42287,0.51001 -32.75228,0.51001 -38.93196,0 -78.58487,-2.14204 -117.00186,-4.28408 -9.06352,-0.51001 -18.23004,-1.02002 -27.29356,-1.42803 h -0.103 c -32.13431,-1.12202 -35.32714,-7.24214 -35.32714,-7.24214 -0.103,-0.81601 1.54492,-5.2021 11.74138,-12.54624 8.23957,-5.91611 18.33304,-11.01621 24.61571,-13.46426 l 25.33667,-9.69019 -26.88159,-4.28408 c -4.53176,-0.71401 -9.99048,-1.12202 -15.96416,-1.12202 -26.36662,0 -75.49504,7.75215 -95.47599,28.66255 -5.97369,6.22212 -8.75454,13.15826 -8.34256,20.5024 0,0.204 0,0.71401 0,1.02002 -0.103,3.57007 -0.30898,10.91421 6.69465,18.15635 11.22641,11.42422 38.41698,18.56436 82.70465,21.42041 l 17.3031,14.48428 c 1.54492,1.32603 39.8589,32.43663 129.3612,32.43663 27.91154,0 58.19195,-3.06006 90.01728,-9.18018 54.48414,-10.4042 156.0368,-39.47476 214.74372,-64.66925 l -4.94374,-13.66826 c -148.20922,42.73882 -257.28049,51.613 -322.68206,51.613 z"
     id="path10"
     style="stroke-width:1.02497;fill:#3d9dff;fill-opacity:1" /><path
     d="m 568.06893,593.95929 c -22.96779,4.79409 -44.80264,7.24214 -64.78359,7.24214 -51.08532,0 -77.14295,-15.7083 -83.9406,-20.5024 l -4.73775,-3.36606 -33.47324,28.76455 6.07668,5.50811 c 1.44193,1.32603 37.18105,32.94664 121.22464,32.94664 39.13794,0 82.80765,-6.93614 129.56719,-20.6044 l 26.26362,-7.65015 -94.54903,-22.64444 z"
     id="path12"
     style="stroke-width:1.02497;fill:#3d9dff;fill-opacity:1" /><path
     style="fill:#df6eb4;fill-opacity:1;stroke-width:0.806361"
     d="m 558.92777,452.13501 c 0,0 6.22305,-4.0611 14.23218,-11.36502 5.50429,-5.01963 11.92179,-11.98289 18.43162,-19.0179 6.32243,-6.83249 11.11752,-12.94675 15.48902,-21.14447 2.39489,-4.49104 4.59167,-13.16146 5.47384,-18.44636 1.12414,-6.73456 -0.4848,-15.75245 -2.78266,-22.61105 -2.876,-8.58424 -8.413,-15.52083 -14.34791,-24.78072 -2.11423,-3.29871 -4.53121,-6.63383 -7.27593,-10.00074 -1.12868,-1.38453 -1.94761,-2.79195 -3.64486,-5.38297 -1.77272,-2.70624 -2.24888,-3.32684 -3.12764,-4.82855 -2.15362,-3.68028 -4.78046,-8.42727 -6.20877,-12.10686 -1.66021,-4.27698 -3.30161,-8.48771 -3.08417,-12.6975 0.30389,-5.8833 -0.69089,-6.8754 2.03964,-12.72877 0.92206,-1.97658 1.97022,-3.95458 3.13357,-5.93124 3.37915,-5.74152 8.18574,-11.19402 13.24135,-16.84502 5.31358,-5.93935 11.56339,-11.10166 18.10971,-16.79542 7.18676,-6.25078 15.3402,-11.86116 23.22543,-17.64483 7.32737,-5.37449 15.01547,-10.05148 22.24607,-14.86119 8.2875,-5.51274 16.40845,-10.71452 23.63884,-15.26114 9.1131,-5.73051 13.58996,-9.02267 19.28986,-12.62759 7.50099,-4.74402 14.63503,-8.91191 12.48627,-8.75709 -7.38,0.53175 -10.9901,1.17788 -21.2459,2.29484 -4.53602,0.49403 -10.63264,0.0783 -18.52642,1.85591 -4.91712,1.10729 -9.60318,3.47588 -14.35648,5.50678 -4.89162,2.09001 -6.18202,2.27543 -11.22796,4.64245 -12.54648,5.88547 -55.61215,24.99802 -58.74106,26.93614 -2.05387,1.27222 -9.57392,4.92067 -16.77851,9.70113 -7.93415,5.26453 -15.66195,11.78376 -19.33031,15.30153 -1.333,1.27827 -2.97205,3.24839 -4.75404,4.96372 -2.32729,2.24025 -4.54967,5.02659 -6.65031,7.35355 -2.2833,2.52928 -7.73399,9.71686 -11.95072,16.57612 -4.6853,7.62148 -7.66111,15.47879 -10.16956,25.58205 -1.6737,6.74119 -1.64387,14.91321 -0.99047,21.39631 0.50728,5.03333 1.48913,9.08541 1.71065,10.42452 0.5651,3.41603 1.20629,4.12258 1.99972,6.8805 0.9388,3.26321 3.1631,7.84513 4.57522,11.47988 1.96411,5.05554 5.8676,11.84414 8.43817,15.9236 1.70908,2.71229 3.00458,5.37625 4.76454,7.57123 2.34185,2.92068 4.48636,6.17188 6.53967,8.84101 1.3831,1.79791 5.06987,6.55 8.73797,11.88869 4.49264,6.53878 8.21188,14.09638 8.57424,17.08715 0.98228,8.10725 -1.66719,14.32544 -4.91134,20.76074 -2.95585,5.86339 -5.2641,9.5501 -7.16127,12.49684 -1.25348,1.94696 -2.38007,3.66863 -2.14199,6.32345 0.30932,3.44915 -1.02462,11.96583 2.14208,12.77507 7.87141,2.01151 10.88862,-0.72878 10.88862,-0.72878 z"
     id="path4760"
     sodipodi:nodetypes="cssssssssssssssssssssssssssssssssssssssssssssc" /></g>
</svg>
